<?xml version="1.0" encoding="UTF-8"?>
<svg xmlns="http://www.w3.org/2000/svg" width="500" height="500" viewBox="0 0 500 500" font-family="Arial, sans-serif">
<rect width="100%" height="100%" fill="#ffffff"/>
<rect x="0" y="0" width="50" height="50" fill="#fff" stroke="#000" stroke-width="1"/>
<text x="25" y="35" font-size="24" text-anchor="middle" fill="#000">R</text>
<rect x="50" y="0" width="50" height="50" fill="#fff" stroke="#000" stroke-width="1"/>
<text x="75" y="35" font-size="24" text-anchor="middle" fill="#000">A</text>
<rect x="100" y="0" width="50" height="50" fill="#fff" stroke="#000" stroke-width="1"/>
<text x="125" y="35" font-size="24" text-anchor="middle" fill="#000">I</text>
<rect x="150" y="0" width="50" height="50" fill="#fff" stroke="#000" stroke-width="1"/>
<text x="175" y="35" font-size="24" text-anchor="middle" fill="#000">N</text>
<rect x="200" y="0" width="50" height="50" fill="#fff" stroke="#000" stroke-width="1"/>
<text x="225" y="35" font-size="24" text-anchor="middle" fill="#000">S</text>
<rect x="250" y="0" width="50" height="50" fill="#fff" stroke="#000" stroke-width="1"/>
<text x="275" y="35" font-size="24" text-anchor="middle" fill="#000">T</text>
<rect x="300" y="0" width="50" height="50" fill="#fff" stroke="#000" stroke-width="1"/>
<text x="325" y="35" font-size="24" text-anchor="middle" fill="#000">O</text>
<rect x="350" y="0" width="50" height="50" fill="#fff" stroke="#000" stroke-width="1"/>
<text x="375" y="35" font-size="24" text-anchor="middle" fill="#000">R</text>
<rect x="400" y="0" width="50" height="50" fill="#fff" stroke="#000" stroke-width="1"/>
<text x="425" y="35" font-size="24" text-anchor="middle" fill="#000">M</text>
<rect x="450" y="0" width="50" height="50" fill="#000" stroke="#000" stroke-width="1"/>
<rect x="0" y="50" width="50" height="50" fill="#000" stroke="#000" stroke-width="1"/>
<rect x="50" y="50" width="50" height="50" fill="#000" stroke="#000" stroke-width="1"/>
<rect x="100" y="50" width="50" height="50" fill="#000" stroke="#000" stroke-width="1"/>
<rect x="150" y="50" width="50" height="50" fill="#000" stroke="#000" stroke-width="1"/>
<rect x="200" y="50" width="50" height="50" fill="#fff" stroke="#000" stroke-width="1"/>
<text x="225" y="85" font-size="24" text-anchor="middle" fill="#000">U</text>
<rect x="250" y="50" width="50" height="50" fill="#000" stroke="#000" stroke-width="1"/>
<rect x="300" y="50" width="50" height="50" fill="#000" stroke="#000" stroke-width="1"/>
<rect x="350" y="50" width="50" height="50" fill="#000" stroke="#000" stroke-width="1"/>
<rect x="400" y="50" width="50" height="50" fill="#fff" stroke="#000" stroke-width="1"/>
<text x="425" y="85" font-size="24" text-anchor="middle" fill="#000">O</text>
<rect x="450" y="50" width="50" height="50" fill="#000" stroke="#000" stroke-width="1"/>
<rect x="0" y="100" width="50" height="50" fill="#000" stroke="#000" stroke-width="1"/>
<rect x="50" y="100" width="50" height="50" fill="#000" stroke="#000" stroke-width="1"/>
<rect x="100" y="100" width="50" height="50" fill="#fff" stroke="#000" stroke-width="1"/>
<text x="125" y="135" font-size="24" text-anchor="middle" fill="#000">P</text>
<rect x="150" y="100" width="50" height="50" fill="#000" stroke="#000" stroke-width="1"/>
<rect x="200" y="100" width="50" height="50" fill="#fff" stroke="#000" stroke-width="1"/>
<text x="225" y="135" font-size="24" text-anchor="middle" fill="#000">N</text>
<rect x="250" y="100" width="50" height="50" fill="#000" stroke="#000" stroke-width="1"/>
<rect x="300" y="100" width="50" height="50" fill="#fff" stroke="#000" stroke-width="1"/>
<text x="325" y="135" font-size="24" text-anchor="middle" fill="#000">F</text>
<rect x="350" y="100" width="50" height="50" fill="#000" stroke="#000" stroke-width="1"/>
<rect x="400" y="100" width="50" height="50" fill="#fff" stroke="#000" stroke-width="1"/>
<text x="425" y="135" font-size="24" text-anchor="middle" fill="#000">U</text>
<rect x="450" y="100" width="50" height="50" fill="#000" stroke="#000" stroke-width="1"/>
<rect x="0" y="150" width="50" height="50" fill="#000" stroke="#000" stroke-width="1"/>
<rect x="50" y="150" width="50" height="50" fill="#000" stroke="#000" stroke-width="1"/>
<rect x="100" y="150" width="50" height="50" fill="#fff" stroke="#000" stroke-width="1"/>
<text x="125" y="185" font-size="24" text-anchor="middle" fill="#000">R</text>
<rect x="150" y="150" width="50" height="50" fill="#000" stroke="#000" stroke-width="1"/>
<rect x="200" y="150" width="50" height="50" fill="#fff" stroke="#000" stroke-width="1"/>
<text x="225" y="185" font-size="24" text-anchor="middle" fill="#000">L</text>
<rect x="250" y="150" width="50" height="50" fill="#000" stroke="#000" stroke-width="1"/>
<rect x="300" y="150" width="50" height="50" fill="#fff" stroke="#000" stroke-width="1"/>
<text x="325" y="185" font-size="24" text-anchor="middle" fill="#000">O</text>
<rect x="350" y="150" width="50" height="50" fill="#000" stroke="#000" stroke-width="1"/>
<rect x="400" y="150" width="50" height="50" fill="#fff" stroke="#000" stroke-width="1"/>
<text x="425" y="185" font-size="24" text-anchor="middle" fill="#000">N</text>
<rect x="450" y="150" width="50" height="50" fill="#000" stroke="#000" stroke-width="1"/>
<rect x="0" y="200" width="50" height="50" fill="#fff" stroke="#000" stroke-width="1"/>
<text x="25" y="235" font-size="24" text-anchor="middle" fill="#000">G</text>
<rect x="50" y="200" width="50" height="50" fill="#fff" stroke="#000" stroke-width="1"/>
<text x="75" y="235" font-size="24" text-anchor="middle" fill="#000">L</text>
<rect x="100" y="200" width="50" height="50" fill="#fff" stroke="#000" stroke-width="1"/>
<text x="125" y="235" font-size="24" text-anchor="middle" fill="#000">A</text>
<rect x="150" y="200" width="50" height="50" fill="#fff" stroke="#000" stroke-width="1"/>
<text x="175" y="235" font-size="24" text-anchor="middle" fill="#000">C</text>
<rect x="200" y="200" width="50" height="50" fill="#fff" stroke="#000" stroke-width="1"/>
<text x="225" y="235" font-size="24" text-anchor="middle" fill="#000">I</text>
<rect x="250" y="200" width="50" height="50" fill="#fff" stroke="#000" stroke-width="1"/>
<text x="275" y="235" font-size="24" text-anchor="middle" fill="#000">E</text>
<rect x="300" y="200" width="50" height="50" fill="#fff" stroke="#000" stroke-width="1"/>
<text x="325" y="235" font-size="24" text-anchor="middle" fill="#000">R</text>
<rect x="350" y="200" width="50" height="50" fill="#000" stroke="#000" stroke-width="1"/>
<rect x="400" y="200" width="50" height="50" fill="#fff" stroke="#000" stroke-width="1"/>
<text x="425" y="235" font-size="24" text-anchor="middle" fill="#000">T</text>
<rect x="450" y="200" width="50" height="50" fill="#000" stroke="#000" stroke-width="1"/>
<rect x="0" y="250" width="50" height="50" fill="#000" stroke="#000" stroke-width="1"/>
<rect x="50" y="250" width="50" height="50" fill="#000" stroke="#000" stroke-width="1"/>
<rect x="100" y="250" width="50" height="50" fill="#fff" stroke="#000" stroke-width="1"/>
<text x="125" y="285" font-size="24" text-anchor="middle" fill="#000">I</text>
<rect x="150" y="250" width="50" height="50" fill="#000" stroke="#000" stroke-width="1"/>
<rect x="200" y="250" width="50" height="50" fill="#fff" stroke="#000" stroke-width="1"/>
<text x="225" y="285" font-size="24" text-anchor="middle" fill="#000">G</text>
<rect x="250" y="250" width="50" height="50" fill="#000" stroke="#000" stroke-width="1"/>
<rect x="300" y="250" width="50" height="50" fill="#fff" stroke="#000" stroke-width="1"/>
<text x="325" y="285" font-size="24" text-anchor="middle" fill="#000">E</text>
<rect x="350" y="250" width="50" height="50" fill="#000" stroke="#000" stroke-width="1"/>
<rect x="400" y="250" width="50" height="50" fill="#fff" stroke="#000" stroke-width="1"/>
<text x="425" y="285" font-size="24" text-anchor="middle" fill="#000">A</text>
<rect x="450" y="250" width="50" height="50" fill="#000" stroke="#000" stroke-width="1"/>
<rect x="0" y="300" width="50" height="50" fill="#000" stroke="#000" stroke-width="1"/>
<rect x="50" y="300" width="50" height="50" fill="#000" stroke="#000" stroke-width="1"/>
<rect x="100" y="300" width="50" height="50" fill="#fff" stroke="#000" stroke-width="1"/>
<text x="125" y="335" font-size="24" text-anchor="middle" fill="#000">R</text>
<rect x="150" y="300" width="50" height="50" fill="#000" stroke="#000" stroke-width="1"/>
<rect x="200" y="300" width="50" height="50" fill="#fff" stroke="#000" stroke-width="1"/>
<text x="225" y="335" font-size="24" text-anchor="middle" fill="#000">H</text>
<rect x="250" y="300" width="50" height="50" fill="#000" stroke="#000" stroke-width="1"/>
<rect x="300" y="300" width="50" height="50" fill="#fff" stroke="#000" stroke-width="1"/>
<text x="325" y="335" font-size="24" text-anchor="middle" fill="#000">S</text>
<rect x="350" y="300" width="50" height="50" fill="#000" stroke="#000" stroke-width="1"/>
<rect x="400" y="300" width="50" height="50" fill="#fff" stroke="#000" stroke-width="1"/>
<text x="425" y="335" font-size="24" text-anchor="middle" fill="#000">I</text>
<rect x="450" y="300" width="50" height="50" fill="#000" stroke="#000" stroke-width="1"/>
<rect x="0" y="350" width="50" height="50" fill="#000" stroke="#000" stroke-width="1"/>
<rect x="50" y="350" width="50" height="50" fill="#000" stroke="#000" stroke-width="1"/>
<rect x="100" y="350" width="50" height="50" fill="#fff" stroke="#000" stroke-width="1"/>
<text x="125" y="385" font-size="24" text-anchor="middle" fill="#000">I</text>
<rect x="150" y="350" width="50" height="50" fill="#000" stroke="#000" stroke-width="1"/>
<rect x="200" y="350" width="50" height="50" fill="#fff" stroke="#000" stroke-width="1"/>
<text x="225" y="385" font-size="24" text-anchor="middle" fill="#000">T</text>
<rect x="250" y="350" width="50" height="50" fill="#000" stroke="#000" stroke-width="1"/>
<rect x="300" y="350" width="50" height="50" fill="#fff" stroke="#000" stroke-width="1"/>
<text x="325" y="385" font-size="24" text-anchor="middle" fill="#000">T</text>
<rect x="350" y="350" width="50" height="50" fill="#000" stroke="#000" stroke-width="1"/>
<rect x="400" y="350" width="50" height="50" fill="#fff" stroke="#000" stroke-width="1"/>
<text x="425" y="385" font-size="24" text-anchor="middle" fill="#000">N</text>
<rect x="450" y="350" width="50" height="50" fill="#000" stroke="#000" stroke-width="1"/>
<rect x="0" y="400" width="50" height="50" fill="#fff" stroke="#000" stroke-width="1"/>
<text x="25" y="435" font-size="24" text-anchor="middle" fill="#000">R</text>
<rect x="50" y="400" width="50" height="50" fill="#fff" stroke="#000" stroke-width="1"/>
<text x="75" y="435" font-size="24" text-anchor="middle" fill="#000">E</text>
<rect x="100" y="400" width="50" height="50" fill="#fff" stroke="#000" stroke-width="1"/>
<text x="125" y="435" font-size="24" text-anchor="middle" fill="#000">E</text>
<rect x="150" y="400" width="50" height="50" fill="#fff" stroke="#000" stroke-width="1"/>
<text x="175" y="435" font-size="24" text-anchor="middle" fill="#000">F</text>
<rect x="200" y="400" width="50" height="50" fill="#000" stroke="#000" stroke-width="1"/>
<rect x="250" y="400" width="50" height="50" fill="#000" stroke="#000" stroke-width="1"/>
<rect x="300" y="400" width="50" height="50" fill="#000" stroke="#000" stroke-width="1"/>
<rect x="350" y="400" width="50" height="50" fill="#000" stroke="#000" stroke-width="1"/>
<rect x="400" y="400" width="50" height="50" fill="#000" stroke="#000" stroke-width="1"/>
<rect x="450" y="400" width="50" height="50" fill="#000" stroke="#000" stroke-width="1"/>
<rect x="0" y="450" width="50" height="50" fill="#000" stroke="#000" stroke-width="1"/>
<rect x="50" y="450" width="50" height="50" fill="#000" stroke="#000" stroke-width="1"/>
<rect x="100" y="450" width="50" height="50" fill="#000" stroke="#000" stroke-width="1"/>
<rect x="150" y="450" width="50" height="50" fill="#000" stroke="#000" stroke-width="1"/>
<rect x="200" y="450" width="50" height="50" fill="#000" stroke="#000" stroke-width="1"/>
<rect x="250" y="450" width="50" height="50" fill="#000" stroke="#000" stroke-width="1"/>
<rect x="300" y="450" width="50" height="50" fill="#000" stroke="#000" stroke-width="1"/>
<rect x="350" y="450" width="50" height="50" fill="#000" stroke="#000" stroke-width="1"/>
<rect x="400" y="450" width="50" height="50" fill="#000" stroke="#000" stroke-width="1"/>
<rect x="450" y="450" width="50" height="50" fill="#000" stroke="#000" stroke-width="1"/>
</svg>